<svg xmlns="http://www.w3.org/2000/svg" viewBox="0 0 752 664.3"><defs><style>.cls-1{fill:#fff;}</style></defs><title>company</title><g id="Layer_2" data-name="Layer 2"><g id="Layer_1-2" data-name="Layer 1"><path class="cls-1" d="M733.2,664.3H18.8a18.8,18.8,0,1,1,0-37.6H31.3V62.7A62.74,62.74,0,0,1,94,0H407.3A62.74,62.74,0,0,1,470,62.7V188H658a62.74,62.74,0,0,1,62.7,62.7v376h12.5a18.8,18.8,0,0,1,0,37.6ZM206.8,119.1H119.1v87.7h87.7V119.1Zm0,178.6H119.1v87.7h87.7Zm0,178.6H119.1V564h87.7ZM382.3,119.1H294.6v87.7h87.7Zm0,178.6H294.6v87.7h87.7V297.7Zm0,178.6H294.6V564h87.7ZM645.5,300.9H557.8v87.7h87.7V300.9Zm0,175.4H557.8V564h87.7Z"/></g></g></svg>